<?xml version="1.0" encoding="UTF-8"?>
<svg xmlns="http://www.w3.org/2000/svg" xmlns:xlink="http://www.w3.org/1999/xlink" viewBox="0 0 64 64" width="64px" height="64px">
<g id="surface2921820">
<path style=" stroke:none;fill-rule:nonzero;fill:rgb(18.431373%,76.47059%,38.431373%);fill-opacity:1;" d="M 47.8125 7.9375 C 45.71875 7.9375 43.625 8.75 42 10.375 L 10.375 42 L 10.25 42.625 L 8.0625 53.625 L 7.4375 56.5625 L 10.375 55.9375 L 21.375 53.75 L 22 53.625 L 53.625 22 C 56.875 18.75 56.875 13.625 53.625 10.375 C 52 8.75 49.90625 7.9375 47.8125 7.9375 Z M 47.8125 11.75 C 48.820312 11.75 49.835938 12.210938 50.8125 13.1875 C 52.757812 15.132812 52.757812 17.242188 50.8125 19.1875 L 49.375 20.5625 L 43.4375 14.625 L 44.8125 13.1875 C 45.789062 12.210938 46.804688 11.75 47.8125 11.75 Z M 40.625 17.4375 L 46.5625 23.375 L 22.375 47.5625 C 21.0625 45 19 42.9375 16.4375 41.625 Z M 13.875 44.875 C 16.273438 45.84375 18.15625 47.726562 19.125 50.125 L 12.5625 51.4375 Z M 13.875 44.875 "/>
</g>
</svg>
